nColumns=19
nRows=96
DataType=double
version=3
OpenSimVersion=4.1
endheader
time	ground_force_1_vx	ground_force_1_vy	ground_force_1_vz	ground_force_1_px	ground_force_1_py	ground_force_1_pz	ground_force_1_mx	ground_force_1_my	ground_force_1_mz	ground_force_2_vx	ground_force_2_vy	ground_force_2_vz	ground_force_2_px	ground_force_2_py	ground_force_2_pz	ground_force_2_mx	ground_force_2_my	ground_force_2_mz
0	0	0	0	0.270085	0	-0.249857	0	0	0	0	0	0	1.12133	0	-0.369489	0	0	0
0.005	0	0	0	0.249683	0	-0.248627	0	0	0	0	0	0	1.15457	0	-0.369455	0	0	0
0.01	0	0	0	0.226134	0	-0.248571	0	0	0	0	0	0	1.1873	0	-0.369878	0	0	0
0.015	0	0	0	0.207303	0	-0.248909	0	0	0	0	0	0	1.21914	0	-0.370983	0	0	0
0.02	0	0	0	0.188488	0	-0.247349	0	0	0	0	0	0	1.24984	0	-0.372042	0	0	0
0.025	0	0	0	0.175155	0	-0.246705	0	0	0	0	0	0	1.27862	0	-0.374624	0	0	0
0.03	0	0	0	0.161898	0	-0.244715	0	0	0	0	0	0	1.30531	0	-0.377589	0	0	0
0.035	0	0	0	0.147944	0	-0.246193	0	0	0	0	0	0	1.32937	0	-0.380807	0	0	0
0.04	0	0	0	0.136487	0	-0.245486	0	0	0	0	0	0	1.35009	0	-0.38431	0	0	0
0.045	0	0	0	0.125908	0	-0.245322	0	0	0	0	0	0	1.36717	0	-0.388018	0	0	0
0.05	0	0	0	0.116287	0	-0.2451	0	0	0	0	0	0	1.38054	0	-0.391854	0	0	0
0.055	0	0	0	0.108715	0	-0.24448	0	0	0	0	0	0	1.39041	0	-0.39531	0	0	0
0.06	0	0	0	0.102754	0	-0.244875	0	0	0	0	0	0	1.3968	0	-0.398697	0	0	0
0.065	0	0	0	0.0979032	0	-0.243746	0	0	0	0	0	0	1.40059	0	-0.401813	0	0	0
0.07	0	0	0	0.0961062	0	-0.24357	0	0	0	0	0	0	1.40215	0	-0.403099	0	0	0
0.075	0	0	0	0.0962612	0	-0.243863	0	0	0	0	0	0	1.40161	0	-0.402553	0	0	0
0.08	0	0	0	0.0990801	0	-0.244948	0	0	0	0	0	0	1.39871	0	-0.400424	0	0	0
0.085	0	0	0	0.104446	0	-0.244382	0	0	0	0	0	0	1.39349	0	-0.397155	0	0	0
0.09	0	0	0	0.112194	0	-0.244185	0	0	0	0	0	0	1.38587	0	-0.393312	0	0	0
0.095	0	0	0	0.122013	0	-0.244219	0	0	0	0	0	0	1.37567	0	-0.388902	0	0	0
0.1	0	0	0	0.133585	0	-0.244042	0	0	0	0	0	0	1.36365	0	-0.384273	0	0	0
0.105	0	0	0	0.144489	0	-0.244644	0	0	0	0	0	0	1.34936	0	-0.37925	0	0	0
0.11	0	0	0	0.160847	0	-0.243328	0	0	0	0	0	0	1.33304	0	-0.374061	0	0	0
0.115	0	0	0	0.176637	0	-0.242233	0	0	0	0	0	0	1.31469	0	-0.368906	0	0	0
0.12	0	0	0	0.193117	0	-0.24106	0	0	0	-28.6174	17.7136	-17.5755	1.29448	0	-0.363827	0	-14.3465	0
0.125	0	0	0	0.211948	0	-0.238471	0	0	0	-70.0171	124.346	-0.604297	1.23845	0	-0.376321	0	-11.3504	0
0.13	0	0	0	0.229035	0	-0.237213	0	0	0	-120.997	306.998	35.7578	1.14191	0	-0.399863	0	-7.05593	0
0.135	0	0	0	0.247854	0	-0.235011	0	0	0	-175.055	562.109	94.9784	1.11572	0	-0.383529	0	1.24806	0
0.14	0	0	0	0.267514	0	-0.232627	0	0	0	-216.727	850.867	168.8	1.09745	0	-0.370979	0	9.87326	0
0.145	0	0	0	0.287476	0	-0.230267	0	0	0	-231.002	1134.34	229.211	1.08062	0	-0.361282	0	10.3465	0
0.15	0	0	0	0.307984	0	-0.227856	0	0	0	-228.485	1400.77	242.605	1.05868	0	-0.354212	0	-3.9726	0
0.155	0	0	0	0.328753	0	-0.22539	0	0	0	-237.124	1644.93	192.488	1.03198	0	-0.349184	0	-24.5019	0
0.16	0	0	0	0.349676	0	-0.22301	0	0	0	-264.064	1851.54	88.9157	1.01192	0	-0.345895	0	-32.0713	0
0.165	0	0	0	0.370499	0	-0.221623	0	0	0	-307.522	2016.15	-31.3638	1.00347	0	-0.34362	0	-21.17	0
0.17	0	0	0	0.391339	0	-0.21963	0	0	0	-369.87	2153.52	-125.123	1.00055	0	-0.341535	0	-2.29251	0
0.175	0	0	0	0.412479	0	-0.217688	0	0	0	-432.136	2274.87	-164.424	0.996935	0	-0.339156	0	9.75466	0
0.18	0	0	0	0.433347	0	-0.216228	0	0	0	-463.636	2385.54	-144.682	0.987015	0	-0.336915	0	6.79086	0
0.185	0	0	0	0.454795	0	-0.214882	0	0	0	-450.229	2484.22	-77.4452	0.965314	0	-0.335197	0	-5.34002	0
0.19	0	0	0	0.476358	0	-0.213627	0	0	0	-388.993	2559.21	6.28763	0.933682	0	-0.334771	0	-13.8339	0
0.195	0	0	0	0.498483	0	-0.214099	0	0	0	-294.221	2603.25	73.1306	0.897942	0	-0.33563	0	-12.8656	0
0.2	0	0	0	0.52202	0	-0.211971	0	0	0	-195.076	2622.97	103.386	0.862784	0	-0.337057	0	-7.12244	0
0.205	0	0	0	0.54632	0	-0.210653	0	0	0	-107.304	2624.51	100.867	0.831609	0	-0.337882	0	-2.99181	0
0.21	0	0	0	0.572201	0	-0.207955	0	0	0	-27.5689	2608.09	82.5378	0.80458	0	-0.337692	0	-2.62667	0
0.215	0	0	0	0.598832	0	-0.209186	0	0	0	51.3862	2569.95	63.5319	0.778717	0	-0.336646	0	-4.50918	0
0.22	0	0	0	0.626916	0	-0.207744	0	0	0	133.696	2507.66	46.458	0.752575	0	-0.335151	0	-7.22511	0
0.225	0	0	0	0.656193	0	-0.206433	0	0	0	216.121	2420.74	26.6558	0.726078	0	-0.333349	0	-12.3704	0
0.23	0	0	0	0.686708	0	-0.205917	0	0	0	288.55	2311.27	-2.56911	0.699896	0	-0.331478	0	-18.2635	0
0.235	0	0	0	0.718406	0	-0.20542	0	0	0	345.942	2180.95	-43.204	0.676342	0	-0.329785	0	-16.1617	0
0.24	0	0	0	0.751037	0	-0.205228	0	0	0	387.25	2029.99	-91.242	0.656723	0	-0.32866	0	1.86295	0
0.245	0	0	0	0.784322	0	-0.204981	0	0	0	414.063	1854.09	-136.218	0.639028	0	-0.328415	0	30.8987	0
0.25	0	0	0	0.818351	0	-0.204796	0	0	0	431.34	1645.96	-161.517	0.618366	0	-0.328958	0	54.7666	0
0.255	0	0	0	0.853135	0	-0.204233	0	0	0	441.709	1399.91	-151.026	0.586232	0	-0.329945	0	58.9878	0
0.26	0	0	0	0.887667	0	-0.204306	0	0	0	443.737	1118.38	-100.807	0.531397	0	-0.331204	0	37.7216	0
0.265	0	0	0	0.922305	0	-0.204596	0	0	0	431.701	818.782	-26.1405	0.441274	0	-0.333023	0	-5.4119	0
0.27	0	0	0	0.957134	0	-0.204946	0	0	0	398.049	532.056	39.3611	0.301971	0	-0.336349	0	-53.8851	0
0.275	0	0	0	0.992275	0	-0.204996	0	0	0	339.903	296.915	62.7553	0.120701	0	-0.34342	0	-79.9792	0
0.28	0	0	0	1.02673	0	-0.206326	0	0	0	261.231	138.346	36.8543	0.222868	0	-0.340772	0	-55.7093	0
0.285	0	0	0	1.06097	0	-0.2077	0	0	0	174.56	47.2266	-13.6236	0.354557	0	-0.335879	0	3.43012	0
0.29	0	0	0	1.09539	0	-0.210163	0	0	0	0	0	0	0.332303	0	-0.336902	0	0	0
0.295	0	0	0	1.12868	0	-0.211852	0	0	0	0	0	0	0.311085	0	-0.338149	0	0	0
0.3	0	0	0	1.16105	0	-0.21344	0	0	0	0	0	0	0.290026	0	-0.339266	0	0	0
0.305	0	0	0	1.19265	0	-0.215171	0	0	0	0	0	0	0.269502	0	-0.339316	0	0	0
0.31	0	0	0	1.22297	0	-0.216701	0	0	0	0	0	0	0.253596	0	-0.336549	0	0	0
0.315	0	0	0	1.25226	0	-0.218672	0	0	0	0	0	0	0.234159	0	-0.331306	0	0	0
0.32	0	0	0	1.27914	0	-0.219524	0	0	0	0	0	0	0.215519	0	-0.327435	0	0	0
0.325	0	0	0	1.3046	0	-0.220617	0	0	0	0	0	0	0.200962	0	-0.322339	0	0	0
0.33	0	0	0	1.32778	0	-0.221518	0	0	0	0	0	0	0.191282	0	-0.317558	0	0	0
0.335	0	0	0	1.34822	0	-0.222115	0	0	0	0	0	0	0.178879	0	-0.312267	0	0	0
0.34	0	0	0	1.36508	0	-0.222673	0	0	0	0	0	0	0.167665	0	-0.307776	0	0	0
0.345	0	0	0	1.37825	0	-0.223438	0	0	0	0	0	0	0.155322	0	-0.303981	0	0	0
0.35	0	0	0	1.3886	0	-0.224495	0	0	0	0	0	0	0.146584	0	-0.300799	0	0	0
0.355	0	0	0	1.39515	0	-0.22599	0	0	0	0	0	0	0.139759	0	-0.29786	0	0	0
0.36	0	0	0	1.39855	0	-0.227563	0	0	0	0	0	0	0.133618	0	-0.295631	0	0	0
0.365	0	0	0	1.39933	0	-0.228859	0	0	0	0	0	0	0.131328	0	-0.294856	0	0	0
0.37	0	0	0	1.39739	0	-0.229668	0	0	0	0	0	0	0.130921	0	-0.294787	0	0	0
0.375	0	0	0	1.39277	0	-0.229858	0	0	0	0	0	0	0.132424	0	-0.294706	0	0	0
0.38	0	0	0	1.38556	0	-0.229626	0	0	0	0	0	0	0.134824	0	-0.295419	0	0	0
0.385	0	0	0	1.37562	0	-0.229046	0	0	0	0	0	0	0.145386	0	-0.297146	0	0	0
0.39	0	0	0	1.3634	0	-0.229166	0	0	0	0	0	0	0.154051	0	-0.298863	0	0	0
0.395	0	0	0	1.34912	0	-0.229418	0	0	0	0	0	0	0.164869	0	-0.300752	0	0	0
0.4	0	0	0	1.33263	0	-0.230561	0	0	0	0	0	0	0.177398	0	-0.303307	0	0	0
0.405	-44.8504	51.0124	1.00477	1.31405	0	-0.232121	0	4.98154	0	0	0	0	0.189918	0	-0.30676	0	0	0
0.41	-94.5428	186.881	-21.7858	1.19647	0	-0.213398	0	2.75752	0	0	0	0	0.204067	0	-0.309945	0	0	0
0.415	-156.168	402.112	-65.3801	1.14763	0	-0.219975	0	-0.230151	0	0	0	0	0.219329	0	-0.313285	0	0	0
0.42	-210.488	680.966	-128.425	1.13349	0	-0.231802	0	-4.63031	0	0	0	0	0.235531	0	-0.316541	0	0	0
0.425	-237.318	987.408	-199.207	1.12264	0	-0.24259	0	-8.9409	0	0	0	0	0.252622	0	-0.319892	0	0	0
0.43	-239.069	1294.72	-249.867	1.10951	0	-0.252049	0	-5.35109	0	0	0	0	0.270508	0	-0.323434	0	0	0
0.435	-249.13	1582.89	-248.306	1.09133	0	-0.258797	0	10.3581	0	0	0	0	0.288772	0	-0.327128	0	0	0
0.44	-295.756	1829.39	-182.391	1.07464	0	-0.262104	0	25.945	0	0	0	0	0.307671	0	-0.330756	0	0	0
0.445	-378.202	2023.36	-69.3995	1.06543	0	-0.262253	0	29.0784	0	0	0	0	0.326991	0	-0.334501	0	0	0
0.45	-472.61	2175.86	50.3526	1.06102	0	-0.260964	0	21.0925	0	0	0	0	0.34677	0	-0.337979	0	0	0
0.455	-543.181	2302.62	136.85	1.05541	0	-0.25989	0	10.5687	0	0	0	0	0.366891	0	-0.341566	0	0	0
0.46	-568.253	2411.12	170.092	1.04291	0	-0.259902	0	5.28829	0	0	0	0	0.387353	0	-0.344462	0	0	0
0.465	-545.988	2501.46	152.928	1.02068	0	-0.260714	0	6.68371	0	0	0	0	0.407885	0	-0.348785	0	0	0
0.47	-483.826	2571.38	103.573	0.989594	0	-0.261827	0	7.66967	0	0	0	0	0.429323	0	-0.352206	0	0	0
0.475	-393.412	2620.43	47.2423	0.953384	0	-0.262691	0	3.01201	0	0	0	0	0.451459	0	-0.355542	0	0	0
